<svg width="58" height="15" viewBox="0 0 58 15" fill="none" xmlns="http://www.w3.org/2000/svg">
    <path d="M20.9774 5.71934C20.9774 5.71934 20.9019 4.30592 20.113 3.32114C19.3241 2.33636 18.4597 2.07478 17.9508 2.00005C17.8953 1.42413 17.7997 1.14496 17.7997 1.14496L15.8064 1.35818L15.9376 2.37154C15.9376 2.37154 13.9443 3.26399 13.4932 5.64461C13.0421 8.02522 13.1732 9.71781 14.0754 11.5027C14.9776 13.2876 16.2753 13.8635 17.6086 13.8635C17.722 14.5142 17.7597 14.756 17.7597 14.756C17.7597 14.756 19.3197 14.5516 19.8975 14.468C19.813 13.7427 19.6864 13.2261 19.6864 13.2261C19.6864 13.2261 21.293 12.4721 21.3641 10.3531C20.3641 10.3113 19.0375 10.2827 19.0375 10.2827C19.0375 10.2827 19.1219 10.9949 18.3042 11.3423C17.4864 11.6918 16.7242 11.6346 16.0775 10.2827C15.4287 8.93086 15.4442 7.01846 15.9376 5.66659C16.4309 4.31472 17.6575 4.28614 17.8842 4.41143C18.1108 4.53673 18.5619 4.88624 18.6308 5.8886C19.6175 5.82266 20.9774 5.71934 20.9774 5.71934Z" fill="#16DE7E"/>
    <path fill-rule="evenodd" clip-rule="evenodd" d="M28.5995 9.50258C26.204 4.53912 26.5417 0.898956 26.5417 0.898956H29.2328C29.135 2.83774 29.7972 5.24913 30.3616 6.78345C31.2772 5.69536 33.886 0.898956 33.886 0.898956L36.3104 2.19587C36.3104 2.19587 34.986 4.52373 34.2104 5.84923C33.4349 7.17472 31.2216 10.228 31.2216 10.228C31.2216 10.228 30.375 13.5054 30.1216 14.4528C29.6994 14.3012 27.5617 13.8264 27.5617 13.8264C27.5617 13.8264 27.7528 13.0438 28.5995 9.50258ZM1.02442 15C1.30664 13.6042 0 1.64835 0 1.64835C0 1.64835 1.3333 1.41535 2.79993 1.36039C2.99771 3.06177 3.74436 10.7532 3.8088 12.127C4.67722 12.0968 6.19899 11.9084 7.21753 11.7715C6.89588 11.4522 6.62172 11.0599 6.41793 10.6014C5.59128 8.74179 6.93125 3.78712 6.93125 3.78712C6.93125 3.78712 8.21344 4.06409 9.1512 4.21577C8.90676 5.12581 8.49343 7.91528 8.41788 8.77037C8.34233 9.62545 8.56899 10.5926 9.18897 10.7597C9.80896 10.9268 10.4489 10.3684 10.7867 9.19681C11.1245 8.02519 11.4445 5.62699 11.52 4.5301C11.5907 4.5365 11.6768 4.54398 11.7755 4.55256L11.7761 4.55261L11.7761 4.55261L11.7762 4.55262L11.7762 4.55262C12.2545 4.5942 13.028 4.66143 13.7755 4.75432C13.6644 6.22269 13.1378 9.06712 12.9867 9.70019C12.8378 10.3333 12.46 11.6719 10.8445 12.4523C10.0687 12.827 9.20791 12.8439 8.43108 12.5543C8.52434 13.0617 8.64222 13.7163 8.75091 14.3581C7.28427 14.7208 4.29545 15 1.02442 15ZM20.5504 4.5258L22.1859 13.0745L24.1881 12.6986L23.737 10.3707C23.737 10.3707 23.7237 10.1905 23.9059 10.329C24.0881 10.4674 26.7258 12.6019 26.7258 12.6019L28.0503 10.984L24.7503 8.39018C24.7503 8.39018 25.6236 6.52174 25.9214 5.74139C26.217 4.96104 26.5836 4.08178 26.5836 4.08178L24.5681 3.42672C24.5681 3.42672 23.3837 6.70419 23.1437 7.0537C22.8482 5.50619 22.5526 4.11035 22.5526 4.11035C22.5526 4.11035 21.326 4.40051 20.5504 4.5258Z" fill="#D583FB"/>
    <path fill-rule="evenodd" clip-rule="evenodd" d="M56.9364 0L47.8233 1.29032L48.1354 3.55591L42.5709 4.34663L42.7298 2.49056L35.9588 1.88387L35.7477 4.49969L39.4565 4.83381L39.1187 9.63021C39.1187 9.63021 39.1743 11.7646 37.9477 12.2658C36.721 12.767 35.6366 11.7778 35.7055 10.5359C33.6055 10.2853 32.9433 10.2435 32.9433 10.2435C32.9433 10.2435 32.6611 12.8659 34.9455 14.2881C37.2299 15.7103 39.2743 14.5387 39.2743 14.5387L39.1476 13.8837L39.7387 14.3013C39.7387 14.3013 40.952 13.5627 41.3742 12.3911C41.7621 11.3147 41.7712 11.2031 41.8131 10.6842L41.8132 10.6837C41.8169 10.6379 41.8208 10.5889 41.8253 10.5359C41.8675 10.0391 42.0809 7.16794 42.1815 5.80956L42.2452 6.30866L42.6407 6.23831L42.923 8.07818H42.7252L42.9941 9.9752H43.2052L43.7407 13.3714C43.7407 13.3714 47.4917 13.1977 50.4094 11.7469C49.8317 10.6171 49.5495 10.0323 49.5495 10.0323C49.5495 10.0323 47.4762 10.9534 45.5318 11.1754C45.334 9.99059 45.2918 9.64108 45.2918 9.64108L48.5628 9.18166L48.2939 7.32641L45.0096 7.78582L44.7274 5.94596L49.4361 5.24914L49.2322 3.85354L51.4766 3.53465L53.1654 13.9452L55.7387 13.5143L54.0387 3.17195L57.3542 2.74111L56.9364 0Z" fill="#FD9501"/>
</svg>
